<svg width="241" height="160" viewBox="0 0 241 160" fill="none" xmlns="http://www.w3.org/2000/svg">
<path d="M116.598 0.314671C113.746 1.25167 111.75 2.68473 109.81 5.44062C108.042 8.03116 107.871 8.52722 107.871 12.4957C107.871 16.4642 107.985 16.9602 109.867 19.6059C115.571 27.7082 127.835 26.8814 131.942 18.1177C133.197 15.5823 133.368 14.5351 133.14 11.4485C132.74 6.48786 130.63 3.29103 126.181 1.08632C124.184 0.0942001 118.766 -0.346743 116.598 0.314671ZM123.557 6.43274L123.842 8.91304L126.409 9.18863L128.976 9.46422V12.4957V15.5272L126.409 15.8028L123.842 16.0784L123.557 18.5586C123.272 20.8185 123.101 21.0389 121.618 21.2043C120.762 21.3145 119.393 21.2594 118.652 21.0941C117.454 20.7634 117.283 20.4327 117.283 18.2831V15.8579L114.602 15.6925L111.864 15.5272V12.4957V9.46422L114.602 9.29887L117.283 9.13351V6.76345C117.283 5.49574 117.454 4.22803 117.682 4.00756C117.91 3.78709 119.279 3.67685 120.705 3.78709L123.272 3.95244L123.557 6.43274Z" fill="#1E4ED8"/>
<path d="M99.7708 7.47997C88.8191 12.6059 79.6357 21.4799 75.2437 31.1255C74.5022 32.8341 73.5895 34.7633 73.3043 35.3696C73.0191 35.9759 72.2776 38.6766 71.6502 41.3223C70.0531 48.1018 70.1101 55.3773 71.8783 62.1017C73.7607 69.2119 74.3311 70.5898 77.9246 76.4874C91.3289 98.3692 120.134 106.306 143.634 94.6212C152.761 90.1015 162.172 80.5661 165.823 72.1882C166.45 70.7552 167.192 69.0465 167.477 68.4402C169.302 64.6371 170.5 57.6371 170.5 51.0781C170.5 39.3932 166.678 29.472 158.465 19.9366C153.901 14.5902 143.292 7.36974 137.36 5.60597C136.048 5.22015 136.048 5.27526 136.904 6.92879C137.474 7.92091 137.816 10.0154 137.816 12.3303V16.0783L141.296 17.8972C148.825 21.9208 156.639 30.9601 159.206 38.5113C161.716 46.1726 161.887 46.8892 161.602 52.1805C161.26 58.9049 160.461 62.4875 158.008 67.6135C154.016 75.9914 147.342 82.5504 139.299 86.133C136.904 87.1803 135.763 88.1173 134.679 89.8259C131.428 95.2826 126.636 98.0936 120.704 98.0385C114.43 98.0385 108.498 94.6212 106.216 89.7157C105.361 87.8968 104.505 87.2354 100.512 85.3614C87.5643 79.1331 79.4076 65.9048 79.4646 51.3537C79.5217 37.7948 87.6783 24.2909 99.6567 17.8421L102.908 16.1335L103.136 11.8343C103.307 9.51933 103.764 7.20438 104.163 6.70833C105.532 5.10991 104.391 5.33038 99.7708 7.47997Z" fill="#1E4ED8"/>
<path d="M101.595 21.3693C95.2064 25.2827 89.5024 31.2354 86.8786 36.7472C83.3992 44.0778 82.4865 54.1093 84.7681 61.1092C87.8482 70.8099 95.8338 79.5185 104.846 83.0461C107.527 84.0933 108.211 84.6996 109.067 86.4634C110.379 89.2744 113.687 91.9752 117.623 93.5184C120.646 94.731 120.703 94.731 123.27 93.7389C126.692 92.361 131.313 88.4476 132.168 86.1327C132.739 84.6445 133.48 84.0382 136.047 82.991C140.724 81.1721 143.405 79.4083 147.284 75.6603C151.333 71.7469 154.242 67.1722 156.068 61.8257C158.007 56.2588 158.007 46.8888 156.125 41.4322C154.071 35.6999 150.592 30.4637 146.029 26.3299C142.093 22.8024 136.104 19.0544 136.104 20.1567C136.104 20.4323 135.99 21.0386 135.762 21.4795C135.59 21.9756 136.503 22.9126 138.5 24.1252C150.649 31.6212 156.923 45.0699 154.128 57.6919C152.075 67.0068 145.858 75.054 137.359 79.4083L133.138 81.5028L131.313 79.5737C129.145 77.3138 126.293 76.5422 123.327 77.5343C122.186 77.865 121.159 78.3611 120.988 78.6367C120.817 78.8571 119.733 78.5815 118.593 78.0304C117.395 77.4792 115.741 76.9831 114.828 76.9831C112.775 76.9831 110.094 78.3059 109.295 79.739C108.44 81.2272 107.47 81.117 103.078 79.0776C93.1529 74.3375 86.3082 63.0934 86.2511 51.629C86.2511 40.44 93.0959 29.0858 103.078 23.6291C106.158 21.9756 106.158 21.9205 105.131 20.5977C104.504 19.7158 104.219 19.7709 101.595 21.3693ZM118.079 81.117C120.589 82.7705 120.589 82.7705 122.129 81.3925C124.011 79.6839 126.464 79.4634 128.289 80.8414C129.202 81.5579 129.829 82.55 129.829 83.3217C129.829 85.1405 126.863 88.2823 123.384 90.2114L120.532 91.8098L117.908 90.487C114.429 88.7232 113.63 88.0618 112.204 85.802C110.664 83.3217 110.721 82.7705 112.432 81.117C114.201 79.4083 115.455 79.4083 118.079 81.117Z" fill="#1E4ED8"/>
<path d="M105.588 35.8656C103.42 36.7475 102.166 39.0073 102.223 41.7632C102.337 44.2435 103.592 45.897 106.272 46.9994C107.812 47.6608 108.383 47.6057 110.037 46.9443C111.121 46.5033 112.604 45.5112 113.231 44.6844C115.741 41.653 113.973 36.7475 110.037 35.7002C107.413 34.9837 107.698 34.9837 105.588 35.8656Z" fill="#1E4ED8"/>
<path d="M129.945 35.9202C126.58 37.3532 125.439 42.4792 127.949 45.18C128.519 45.7311 129.831 46.5579 130.858 46.9989C132.569 47.6603 133.025 47.6603 134.565 46.8886C137.36 45.5107 138.33 44.4634 138.729 42.5343C139.242 39.7784 137.645 37.0225 134.907 35.9753C132.227 34.9281 132.341 34.9281 129.945 35.9202Z" fill="#1E4ED8"/>
<path d="M101.879 57.4164C101.879 58.9046 103.419 61.2195 105.986 63.5345C109.18 66.4557 110.663 67.2825 114.542 68.3848C120.759 70.0935 127.49 69.0462 132.909 65.4636C135.703 63.5896 138.955 59.6762 138.955 58.1329C138.955 56.6447 137.186 56.1487 136.445 57.4164C135.133 59.566 131.825 62.7628 129.6 64.0305C128.288 64.747 125.722 65.6289 123.782 66.0148C117.793 67.1722 110.777 64.8573 106.556 60.2274C105.529 59.125 104.731 57.8573 104.731 57.4164C104.731 56.9203 104.16 56.5896 103.305 56.5896C102.392 56.5896 101.879 56.9203 101.879 57.4164Z" fill="#1E4ED8"/>
<path d="M8.56 143.6C6.36 143.6 4.52667 143.027 3.06 141.88C1.60667 140.734 0.586667 139.187 0 137.24L4.76 136.1C4.90667 136.914 5.33333 137.614 6.04 138.2C6.74667 138.787 7.52667 139.08 8.38 139.08C8.94 139.08 9.53333 138.934 10.16 138.64C10.7867 138.334 11.2533 137.847 11.56 137.18C11.7467 136.754 11.8533 136.247 11.88 135.66C11.92 135.06 11.94 134.367 11.94 133.58V114.2H16.82V133.58C16.82 134.474 16.8133 135.26 16.8 135.94C16.8 136.607 16.7333 137.24 16.6 137.84C16.48 138.427 16.2333 139.034 15.86 139.66C15.0733 141.02 14.0467 142.02 12.78 142.66C11.5133 143.287 10.1067 143.6 8.56 143.6ZM28.8791 143.6C27.3191 143.6 25.9991 143.307 24.9191 142.72C23.8391 142.12 23.0191 141.327 22.4591 140.34C21.9124 139.354 21.6391 138.267 21.6391 137.08C21.6391 136.04 21.8124 135.107 22.1591 134.28C22.5057 133.44 23.0391 132.72 23.7591 132.12C24.4791 131.507 25.4124 131.007 26.5591 130.62C27.4257 130.34 28.4391 130.087 29.5991 129.86C30.7724 129.634 32.0391 129.427 33.3991 129.24C34.7724 129.04 36.2057 128.827 37.6991 128.6L35.9791 129.58C35.9924 128.087 35.6591 126.987 34.9791 126.28C34.2991 125.574 33.1524 125.22 31.5391 125.22C30.5657 125.22 29.6257 125.447 28.7191 125.9C27.8124 126.354 27.1791 127.134 26.8191 128.24L22.4191 126.86C22.9524 125.034 23.9657 123.567 25.4591 122.46C26.9657 121.354 28.9924 120.8 31.5391 120.8C33.4591 120.8 35.1457 121.114 36.5991 121.74C38.0657 122.367 39.1524 123.394 39.8591 124.82C40.2457 125.58 40.4791 126.36 40.5591 127.16C40.6391 127.947 40.6791 128.807 40.6791 129.74V143H36.4591V138.32L37.1591 139.08C36.1857 140.64 35.0457 141.787 33.7391 142.52C32.4457 143.24 30.8257 143.6 28.8791 143.6ZM29.8391 139.76C30.9324 139.76 31.8657 139.567 32.6391 139.18C33.4124 138.794 34.0257 138.32 34.4791 137.76C34.9457 137.2 35.2591 136.674 35.4191 136.18C35.6724 135.567 35.8124 134.867 35.8391 134.08C35.8791 133.28 35.8991 132.634 35.8991 132.14L37.3791 132.58C35.9257 132.807 34.6791 133.007 33.6391 133.18C32.5991 133.354 31.7057 133.52 30.9591 133.68C30.2124 133.827 29.5524 133.994 28.9791 134.18C28.4191 134.38 27.9457 134.614 27.5591 134.88C27.1724 135.147 26.8724 135.454 26.6591 135.8C26.4591 136.147 26.3591 136.554 26.3591 137.02C26.3591 137.554 26.4924 138.027 26.7591 138.44C27.0257 138.84 27.4124 139.16 27.9191 139.4C28.4391 139.64 29.0791 139.76 29.8391 139.76ZM45.8859 143V121.4H50.1459V126.66L49.6259 125.98C49.8926 125.26 50.2459 124.607 50.6859 124.02C51.1393 123.42 51.6793 122.927 52.3059 122.54C52.8393 122.18 53.4259 121.9 54.0659 121.7C54.7193 121.487 55.3859 121.36 56.0659 121.32C56.7459 121.267 57.4059 121.294 58.0459 121.4V125.9C57.4059 125.714 56.6659 125.654 55.8259 125.72C54.9993 125.787 54.2526 126.02 53.5859 126.42C52.9193 126.78 52.3726 127.24 51.9459 127.8C51.5326 128.36 51.2259 129 51.0259 129.72C50.8259 130.427 50.7259 131.194 50.7259 132.02V143H45.8859ZM69.9625 143.62C68.3625 143.62 67.0425 143.354 66.0025 142.82C64.9625 142.287 64.1358 141.607 63.5225 140.78C62.9092 139.954 62.4558 139.074 62.1625 138.14C61.8692 137.207 61.6758 136.327 61.5825 135.5C61.5025 134.66 61.4625 133.98 61.4625 133.46V121.4H66.3425V131.8C66.3425 132.467 66.3892 133.22 66.4825 134.06C66.5758 134.887 66.7892 135.687 67.1225 136.46C67.4692 137.22 67.9758 137.847 68.6425 138.34C69.3225 138.834 70.2358 139.08 71.3825 139.08C71.9958 139.08 72.6025 138.98 73.2025 138.78C73.8025 138.58 74.3425 138.24 74.8225 137.76C75.3158 137.267 75.7092 136.594 76.0025 135.74C76.2958 134.887 76.4425 133.807 76.4425 132.5L79.3025 133.72C79.3025 135.56 78.9425 137.227 78.2225 138.72C77.5158 140.214 76.4692 141.407 75.0825 142.3C73.6958 143.18 71.9892 143.62 69.9625 143.62ZM77.0225 143V136.3H76.4425V121.4H81.2825V143H77.0225ZM86.9016 143V121.4H91.1616V126.66L90.6416 125.98C90.9082 125.26 91.2616 124.607 91.7016 124.02C92.1549 123.42 92.6949 122.927 93.3216 122.54C93.8549 122.18 94.4416 121.9 95.0816 121.7C95.7349 121.487 96.4016 121.36 97.0816 121.32C97.7616 121.267 98.4216 121.294 99.0616 121.4V125.9C98.4216 125.714 97.6816 125.654 96.8416 125.72C96.0149 125.787 95.2682 126.02 94.6016 126.42C93.9349 126.78 93.3882 127.24 92.9616 127.8C92.5482 128.36 92.2416 129 92.0416 129.72C91.8416 130.427 91.7416 131.194 91.7416 132.02V143H86.9016ZM108.41 143.6C106.85 143.6 105.53 143.307 104.45 142.72C103.37 142.12 102.55 141.327 101.99 140.34C101.444 139.354 101.17 138.267 101.17 137.08C101.17 136.04 101.344 135.107 101.69 134.28C102.037 133.44 102.57 132.72 103.29 132.12C104.01 131.507 104.944 131.007 106.09 130.62C106.957 130.34 107.97 130.087 109.13 129.86C110.304 129.634 111.57 129.427 112.93 129.24C114.304 129.04 115.737 128.827 117.23 128.6L115.51 129.58C115.524 128.087 115.19 126.987 114.51 126.28C113.83 125.574 112.684 125.22 111.07 125.22C110.097 125.22 109.157 125.447 108.25 125.9C107.344 126.354 106.71 127.134 106.35 128.24L101.95 126.86C102.484 125.034 103.497 123.567 104.99 122.46C106.497 121.354 108.524 120.8 111.07 120.8C112.99 120.8 114.677 121.114 116.13 121.74C117.597 122.367 118.684 123.394 119.39 124.82C119.777 125.58 120.01 126.36 120.09 127.16C120.17 127.947 120.21 128.807 120.21 129.74V143H115.99V138.32L116.69 139.08C115.717 140.64 114.577 141.787 113.27 142.52C111.977 143.24 110.357 143.6 108.41 143.6ZM109.37 139.76C110.464 139.76 111.397 139.567 112.17 139.18C112.944 138.794 113.557 138.32 114.01 137.76C114.477 137.2 114.79 136.674 114.95 136.18C115.204 135.567 115.344 134.867 115.37 134.08C115.41 133.28 115.43 132.634 115.43 132.14L116.91 132.58C115.457 132.807 114.21 133.007 113.17 133.18C112.13 133.354 111.237 133.52 110.49 133.68C109.744 133.827 109.084 133.994 108.51 134.18C107.95 134.38 107.477 134.614 107.09 134.88C106.704 135.147 106.404 135.454 106.19 135.8C105.99 136.147 105.89 136.554 105.89 137.02C105.89 137.554 106.024 138.027 106.29 138.44C106.557 138.84 106.944 139.16 107.45 139.4C107.97 139.64 108.61 139.76 109.37 139.76ZM138.077 143C136.651 143.267 135.251 143.38 133.877 143.34C132.517 143.314 131.297 143.067 130.217 142.6C129.137 142.12 128.317 141.367 127.757 140.34C127.264 139.407 127.004 138.454 126.977 137.48C126.951 136.507 126.937 135.407 126.937 134.18V115.4H131.737V133.9C131.737 134.767 131.744 135.527 131.757 136.18C131.784 136.834 131.924 137.367 132.177 137.78C132.657 138.58 133.424 139.027 134.477 139.12C135.531 139.214 136.731 139.16 138.077 138.96V143ZM123.017 125.18V121.4H138.077V125.18H123.017ZM162.91 143.6C160.03 143.6 157.563 142.974 155.51 141.72C153.456 140.454 151.876 138.694 150.77 136.44C149.676 134.187 149.13 131.574 149.13 128.6C149.13 125.627 149.676 123.014 150.77 120.76C151.876 118.507 153.456 116.754 155.51 115.5C157.563 114.234 160.03 113.6 162.91 113.6C166.23 113.6 168.996 114.434 171.21 116.1C173.423 117.754 174.976 119.987 175.87 122.8L171.01 124.14C170.45 122.26 169.496 120.794 168.15 119.74C166.803 118.674 165.056 118.14 162.91 118.14C160.976 118.14 159.363 118.574 158.07 119.44C156.79 120.307 155.823 121.527 155.17 123.1C154.53 124.66 154.203 126.494 154.19 128.6C154.19 130.707 154.51 132.547 155.15 134.12C155.803 135.68 156.776 136.894 158.07 137.76C159.363 138.627 160.976 139.06 162.91 139.06C165.056 139.06 166.803 138.527 168.15 137.46C169.496 136.394 170.45 134.927 171.01 133.06L175.87 134.4C174.976 137.214 173.423 139.454 171.21 141.12C168.996 142.774 166.23 143.6 162.91 143.6ZM186.301 143.6C184.741 143.6 183.421 143.307 182.341 142.72C181.261 142.12 180.441 141.327 179.881 140.34C179.334 139.354 179.061 138.267 179.061 137.08C179.061 136.04 179.234 135.107 179.581 134.28C179.928 133.44 180.461 132.72 181.181 132.12C181.901 131.507 182.834 131.007 183.981 130.62C184.848 130.34 185.861 130.087 187.021 129.86C188.194 129.634 189.461 129.427 190.821 129.24C192.194 129.04 193.628 128.827 195.121 128.6L193.401 129.58C193.414 128.087 193.081 126.987 192.401 126.28C191.721 125.574 190.574 125.22 188.961 125.22C187.988 125.22 187.048 125.447 186.141 125.9C185.234 126.354 184.601 127.134 184.241 128.24L179.841 126.86C180.374 125.034 181.388 123.567 182.881 122.46C184.388 121.354 186.414 120.8 188.961 120.8C190.881 120.8 192.568 121.114 194.021 121.74C195.488 122.367 196.574 123.394 197.281 124.82C197.668 125.58 197.901 126.36 197.981 127.16C198.061 127.947 198.101 128.807 198.101 129.74V143H193.881V138.32L194.581 139.08C193.608 140.64 192.468 141.787 191.161 142.52C189.868 143.24 188.248 143.6 186.301 143.6ZM187.261 139.76C188.354 139.76 189.288 139.567 190.061 139.18C190.834 138.794 191.448 138.32 191.901 137.76C192.368 137.2 192.681 136.674 192.841 136.18C193.094 135.567 193.234 134.867 193.261 134.08C193.301 133.28 193.321 132.634 193.321 132.14L194.801 132.58C193.348 132.807 192.101 133.007 191.061 133.18C190.021 133.354 189.128 133.52 188.381 133.68C187.634 133.827 186.974 133.994 186.401 134.18C185.841 134.38 185.368 134.614 184.981 134.88C184.594 135.147 184.294 135.454 184.081 135.8C183.881 136.147 183.781 136.554 183.781 137.02C183.781 137.554 183.914 138.027 184.181 138.44C184.448 138.84 184.834 139.16 185.341 139.4C185.861 139.64 186.501 139.76 187.261 139.76ZM203.308 143V121.4H207.568V126.66L207.048 125.98C207.314 125.26 207.668 124.607 208.108 124.02C208.561 123.42 209.101 122.927 209.728 122.54C210.261 122.18 210.848 121.9 211.488 121.7C212.141 121.487 212.808 121.36 213.488 121.32C214.168 121.267 214.828 121.294 215.468 121.4V125.9C214.828 125.714 214.088 125.654 213.248 125.72C212.421 125.787 211.674 126.02 211.008 126.42C210.341 126.78 209.794 127.24 209.368 127.8C208.954 128.36 208.648 129 208.448 129.72C208.248 130.427 208.148 131.194 208.148 132.02V143H203.308ZM228.714 143.6C226.527 143.6 224.607 143.127 222.954 142.18C221.3 141.234 220.007 139.92 219.074 138.24C218.154 136.56 217.694 134.627 217.694 132.44C217.694 130.08 218.147 128.034 219.054 126.3C219.96 124.554 221.22 123.2 222.834 122.24C224.447 121.28 226.314 120.8 228.434 120.8C230.674 120.8 232.574 121.327 234.134 122.38C235.707 123.42 236.874 124.894 237.634 126.8C238.394 128.707 238.68 130.954 238.494 133.54H233.714V131.78C233.7 129.434 233.287 127.72 232.474 126.64C231.66 125.56 230.38 125.02 228.634 125.02C226.66 125.02 225.194 125.634 224.234 126.86C223.274 128.074 222.794 129.854 222.794 132.2C222.794 134.387 223.274 136.08 224.234 137.28C225.194 138.48 226.594 139.08 228.434 139.08C229.62 139.08 230.64 138.82 231.494 138.3C232.36 137.767 233.027 137 233.494 136L238.254 137.44C237.427 139.387 236.147 140.9 234.414 141.98C232.694 143.06 230.794 143.6 228.714 143.6ZM221.274 133.54V129.9H236.134V133.54H221.274Z" fill="#1E4ED8"/>
</svg>
