<svg width="24" height="24" viewBox="0 0 24 24" fill="none" xmlns="http://www.w3.org/2000/svg">
<path d="M12 3V21" stroke="#1E4ED8" stroke-width="2" stroke-linecap="round" stroke-linejoin="round"/>
<path d="M19 8L22 16C21.1345 16.6491 20.0819 17 19 17C17.9181 17 16.8655 16.6491 16 16L19 8ZM19 8V7" stroke="#1E4ED8" stroke-width="2" stroke-linecap="round" stroke-linejoin="round"/>
<path d="M3 7H4C6.79039 7 9.53789 6.31313 12 5C14.4621 6.31313 17.2096 7 20 7H21" stroke="#1E4ED8" stroke-width="2" stroke-linecap="round" stroke-linejoin="round"/>
<path d="M5 8L8 16C7.13452 16.6491 6.08185 17 5 17C3.91815 17 2.86548 16.6491 2 16L5 8ZM5 8V7" stroke="#1E4ED8" stroke-width="2" stroke-linecap="round" stroke-linejoin="round"/>
<path d="M7 21H17" stroke="#1E4ED8" stroke-width="2" stroke-linecap="round" stroke-linejoin="round"/>
</svg>
